# Blender v3.5.1 OBJ File: ''
# www.blender.org
mtllib block.mtl
o 円柱.001_円柱.003
v 0.000000 -0.239769 0.000000
v 0.000000 0.239769 0.000000
v -0.866025 -0.239769 0.500000
v -0.866025 0.239769 0.500000
v -0.939693 -0.239769 0.342020
v -0.939693 0.239769 0.342020
v -0.984808 -0.239769 0.173648
v -0.984808 0.239769 0.173648
v -1.000000 -0.239769 0.000000
v -1.000000 0.239769 0.000000
vt 0.750000 0.250000
vt 0.957846 0.370000
vt 0.975526 0.332085
vt 0.250000 0.250000
vt 0.475526 0.332085
vt 0.457846 0.370000
vt 0.833333 1.000000
vt 0.805555 0.500000
vt 0.833333 0.500000
vt 0.986354 0.291676
vt 0.486354 0.291676
vt 0.805555 1.000000
vt 0.777778 0.500000
vt 0.990000 0.250000
vt 0.490000 0.250000
vt 0.777778 1.000000
vt 0.750000 0.500000
vt 0.750000 1.000000
vn 0.0000 -1.0000 0.0000
vn 0.0000 1.0000 0.0000
vn -0.9063 0.0000 0.4226
vn -0.9659 0.0000 0.2588
vn -0.9962 0.0000 0.0872
vn 0.0000 0.0000 -1.0000
vn 0.5000 0.0000 0.8660
usemtl マテリアル
s off
f 1/1/1 3/2/1 5/3/1
f 2/4/2 6/5/2 4/6/2
f 4/7/3 5/8/3 3/9/3
f 1/1/1 5/3/1 7/10/1
f 2/4/2 8/11/2 6/5/2
f 6/12/4 7/13/4 5/8/4
f 1/1/1 7/10/1 9/14/1
f 2/4/2 10/15/2 8/11/2
f 8/16/5 9/17/5 7/13/5
f 10/18/6 1/1/6 9/17/6
f 1/1/7 4/7/7 3/9/7
f 4/7/3 6/12/3 5/8/3
f 6/12/4 8/16/4 7/13/4
f 8/16/5 10/18/5 9/17/5
f 10/18/6 2/4/6 1/1/6
f 1/1/7 2/4/7 4/7/7
