# Blender v3.5.1 OBJ File: ''
# www.blender.org
mtllib block.mtl
o 円柱.003_円柱.010
v 0.037905 -0.228044 -0.010157
v 0.037905 0.228044 -0.010157
v 0.860629 -0.228044 -0.485157
v 0.860629 0.228044 -0.485157
v 0.930613 -0.228044 -0.335076
v 0.930613 0.228044 -0.335076
v 0.973473 -0.228044 -0.175122
v 0.973473 0.228044 -0.175122
v 0.987905 -0.228044 -0.010157
v 0.987905 0.228044 -0.010157
v 0.000000 -0.240046 -0.000000
v 0.075810 -0.211240 -0.020313
v 0.075810 0.211240 -0.020313
v 0.000000 0.240046 -0.000000
v 0.866025 -0.240046 -0.500000
v 0.855233 -0.211240 -0.470313
v 0.855233 0.211240 -0.470313
v 0.866025 0.240046 -0.500000
v 0.939693 -0.240046 -0.342020
v 0.921534 -0.211240 -0.328132
v 0.921534 0.211240 -0.328132
v 0.939693 0.240046 -0.342020
v 0.962138 -0.211240 -0.176597
v 0.984808 -0.240046 -0.173648
v 0.984808 0.240046 -0.173648
v 0.962138 0.211240 -0.176597
v 1.000000 -0.240046 -0.000000
v 0.975810 -0.211240 -0.020313
v 0.975810 0.211240 -0.020313
v 1.000000 0.240046 -0.000000
v 0.918632 -0.240046 -0.334355
v 0.109925 -0.240046 -0.040009
v 0.855233 -0.240046 -0.470313
v 0.918632 0.240046 -0.334355
v 0.109925 0.240046 -0.040009
v 0.855233 0.240046 -0.470313
v 0.877132 0.211240 -0.476181
v 0.877132 -0.211240 -0.476181
v 0.939693 -0.211240 -0.342020
v 0.939693 0.211240 -0.342020
v 0.962138 -0.240046 -0.176597
v 0.962736 -0.240046 -0.169756
v 0.075810 -0.240046 -0.020313
v 0.115203 -0.240046 -0.020313
v 0.921534 -0.240046 -0.328132
v 0.962138 0.240046 -0.176597
v 0.962736 0.240046 -0.169756
v 0.075810 0.240046 -0.020313
v 0.115203 0.240046 -0.020313
v 0.921534 0.240046 -0.328132
v 0.941948 -0.211240 -0.333602
v 0.941948 0.211240 -0.333602
v 0.982552 -0.211240 -0.182067
v 0.984808 -0.211240 -0.173648
v 0.984808 0.211240 -0.173648
v 0.982552 0.211240 -0.182067
v 0.975810 -0.240046 -0.020313
v 0.975810 0.240046 -0.020313
v 0.997709 0.211240 -0.026181
v 0.997709 -0.211240 -0.026181
v 0.065654 -0.211240 -0.037905
v 0.845077 -0.211240 -0.487905
v 0.845077 0.211240 -0.487905
v 0.065654 0.211240 -0.037905
v 0.975810 -0.211240 -0.000000
v 0.975810 0.211240 -0.000000
v 0.075810 0.211240 -0.000000
v 0.075810 -0.211240 -0.000000
vt 0.628803 0.271948
vt 0.628803 0.449753
vt 0.597928 0.447052
vt 0.717706 0.449753
vt 0.686830 0.274649
vt 0.717706 0.271948
vt 0.847393 0.205883
vt 0.932756 0.175360
vt 0.932756 0.205883
vt 0.567990 0.439030
vt 0.656893 0.282671
vt 0.847393 0.175360
vt 0.932756 0.144367
vt 0.539901 0.425932
vt 0.628803 0.295769
vt 0.847393 0.144367
vt 0.932756 0.113844
vt 0.847393 0.287463
vt 0.762030 0.113844
vt 0.847393 0.113844
vt 0.762030 0.461081
vt 0.847393 0.461081
vt 0.154267 0.696166
vt 0.154267 0.548990
vt 0.157741 0.700302
vt 0.243248 0.529289
vt 0.239774 0.680601
vt 0.239774 0.533426
vt 0.407452 0.935087
vt 0.325350 0.935087
vt 0.402526 0.930661
vt 0.154267 0.542254
vt 0.157741 0.529289
vt 0.128045 0.697704
vt 0.099251 0.689989
vt 0.101626 0.686884
vt 0.187133 0.542708
vt 0.184758 0.539602
vt 0.213552 0.531887
vt 0.239774 0.687338
vt 0.243248 0.700302
vt 0.236406 0.681504
vt 0.325350 0.875921
vt 0.330276 0.877411
vt 0.330276 0.904240
vt 0.407452 0.905730
vt 0.402526 0.904240
vt 0.402526 0.877411
vt 0.072235 0.677391
vt 0.150899 0.548088
vt 0.077311 0.675545
vt 0.186069 0.543204
vt 0.162818 0.554046
vt 0.325350 0.846564
vt 0.407452 0.846564
vt 0.330276 0.850990
vt 0.320424 0.533328
vt 0.248174 0.533328
vt 0.325350 0.696276
vt 0.243248 0.696276
vt 0.320424 0.683616
vt 0.325350 0.863263
vt 0.248174 0.859223
vt 0.320424 0.859223
vt 0.248174 0.708935
vt 0.413199 0.613386
vt 0.418125 0.613386
vt 0.418125 0.619809
vt 0.429762 0.639807
vt 0.424836 0.639807
vt 0.424836 0.638651
vt 0.421999 0.757886
vt 0.418125 0.685636
vt 0.421999 0.685636
vt 0.238322 0.700302
vt 0.243248 0.700302
vt 0.243248 0.840633
vt 0.408273 0.760140
vt 0.403347 0.760140
vt 0.403347 0.619809
vt 0.411620 0.839811
vt 0.403347 0.814880
vt 0.406961 0.813390
vt 0.429762 0.613386
vt 0.434688 0.613386
vt 0.434688 0.638651
vt 0.429762 0.693057
vt 0.424836 0.693057
vt 0.424836 0.667792
vt 0.415234 0.786561
vt 0.411620 0.786561
vt 0.411620 0.785071
vt 0.423367 0.914052
vt 0.419893 0.760140
vt 0.423367 0.760140
vt 0.434188 0.832390
vt 0.437543 0.760140
vt 0.437543 0.832390
vt 0.413199 0.760140
vt 0.408273 0.760140
vt 0.408273 0.753717
vt 0.424836 0.666636
vt 0.419893 0.839811
vt 0.416016 0.839811
vt 0.411620 0.814880
vt 0.406961 0.786561
vt 0.403347 0.786561
vt 0.403347 0.785071
vt 0.430315 0.760140
vt 0.434188 0.832390
vt 0.430315 0.832390
vt 0.411620 0.813390
vt 0.403347 0.813390
vt 0.426841 0.760140
vt 0.430315 0.914052
vt 0.426841 0.914052
vt 0.423367 0.914052
vt 0.426841 0.760140
vt 0.426841 0.914052
vt 0.853675 0.205561
vt 0.845473 0.382164
vt 0.845473 0.205561
vt 0.438044 0.685636
vt 0.434688 0.613386
vt 0.438044 0.613386
vt 0.238322 0.700302
vt 0.234848 0.854214
vt 0.234848 0.700302
vt 0.421481 0.613386
vt 0.424836 0.685636
vt 0.421481 0.685636
vt 0.429762 0.666636
vt 0.434688 0.639807
vt 0.434688 0.666636
vt 0.434688 0.667792
vt 0.847393 0.113844
vt 0.762030 0.287463
vt 0.128711 0.693930
vt 0.214217 0.535662
vt 0.402526 0.905730
vt 0.325350 0.905730
vt 0.330276 0.930661
vt 0.330276 0.905730
vt 0.127541 0.693827
vt 0.100562 0.686387
vt 0.213047 0.535764
vt 0.330276 0.875921
vt 0.402526 0.875921
vt 0.407452 0.875921
vt 0.157741 0.552200
vt 0.402526 0.850990
vt 0.325350 0.529289
vt 0.248174 0.683616
vt 0.243248 0.863263
vt 0.320424 0.708935
vt 0.418125 0.760140
vt 0.413199 0.760140
vt 0.424836 0.613386
vt 0.429762 0.613386
vt 0.418125 0.757886
vt 0.243248 0.847057
vt 0.238322 0.847057
vt 0.403347 0.613386
vt 0.408273 0.613386
vt 0.407743 0.839811
vt 0.429762 0.639807
vt 0.429762 0.666636
vt 0.416016 0.760140
vt 0.419893 0.760140
vt 0.419893 0.914052
vt 0.434188 0.760140
vt 0.408273 0.613386
vt 0.413199 0.613386
vt 0.415234 0.813390
vt 0.407743 0.760140
vt 0.411620 0.760140
vt 0.434188 0.760140
vt 0.430315 0.760140
vt 0.423367 0.760140
vt 0.853675 0.382164
vt 0.434688 0.685636
vt 0.238322 0.854214
vt 0.424836 0.613386
vt 0.434688 0.693057
vt 0.429762 0.693057
vn 0.0000 -1.0000 0.0000
vn 0.0000 1.0000 0.0000
vn 0.9063 0.0000 -0.4226
vn 0.9659 0.0000 -0.2588
vn 0.9962 0.0000 -0.0872
vn -0.5000 0.0000 -0.8660
vn 0.0000 0.0000 1.0000
vn 0.5000 0.0000 0.8660
vn -0.9063 0.0000 0.4226
vn -0.2588 0.0000 -0.9659
vn 0.0000 0.0000 -1.0000
vn -0.9962 0.0000 0.0872
vn -1.0000 0.0000 0.0000
vn -0.9659 0.0000 0.2588
vn 0.2588 0.0000 0.9659
vn 1.0000 0.0000 0.0000
vn -0.8660 0.0000 0.5000
vn 0.8660 0.0000 -0.5000
vn -0.9962 0.0000 0.0871
usemtl マテリアル.004
s off
f 1/1/1 3/2/1 5/3/1
f 2/4/2 6/5/2 4/6/2
f 4/7/3 5/8/3 3/9/3
f 1/1/1 5/3/1 7/10/1
f 2/4/2 8/11/2 6/5/2
f 6/12/4 7/13/4 5/8/4
f 1/1/1 7/10/1 9/14/1
f 2/4/2 10/15/2 8/11/2
f 8/16/5 9/17/5 7/13/5
f 1/18/6 4/19/6 3/20/6
f 10/21/7 1/18/7 9/22/7
f 33/23/1 32/24/1 15/25/1
f 18/26/2 35/27/2 36/28/2
f 15/29/3 18/30/3 38/31/3
f 43/32/1 11/33/1 32/24/1
f 19/34/1 24/35/1 41/36/1
f 46/37/2 25/38/2 22/39/2
f 48/40/2 14/41/2 49/42/2
f 25/43/4 56/44/4 52/45/4
f 19/46/4 51/47/4 53/48/4
f 27/49/1 44/50/1 57/51/1
f 25/38/2 47/52/2 58/53/2
f 30/54/5 27/55/5 59/56/5
f 18/26/6 62/57/6 63/58/6
f 11/59/6 14/60/6 61/61/6
f 27/62/7 66/63/7 65/64/7
f 14/60/7 11/59/7 67/65/7
f 12/66/8 43/67/8 32/68/8
f 21/69/9 50/70/9 34/71/9
f 29/72/10 60/73/10 28/74/10
f 28/75/11 57/76/11 44/77/11
f 17/78/8 36/79/8 35/80/8
f 28/81/2 54/82/2 23/83/2
f 16/84/9 33/85/9 31/86/9
f 29/87/12 58/88/12 47/89/12
f 26/90/1 56/91/1 55/92/1
f 13/93/1 63/94/1 17/95/1
f 29/96/13 65/97/13 66/98/13
f 13/99/11 48/100/11 49/101/11
f 21/69/14 46/102/14 50/70/14
f 17/103/1 37/104/1 40/105/1
f 20/106/2 51/107/2 39/108/2
f 16/109/15 37/110/15 17/111/15
f 26/90/1 52/112/1 56/91/1
f 51/107/2 23/83/2 53/113/2
f 29/114/1 67/115/1 13/116/1
f 28/117/2 68/118/2 65/119/2
f 12/120/16 67/121/16 68/122/16
f 17/123/17 62/124/17 16/125/17
f 12/126/2 62/127/2 61/128/2
f 12/129/18 64/130/18 13/131/18
f 23/132/14 45/133/14 41/134/14
f 23/132/19 41/134/19 42/135/19
f 4/7/3 6/12/3 5/8/3
f 6/12/4 8/16/4 7/13/4
f 8/16/5 10/136/5 9/17/5
f 1/18/6 2/137/6 4/19/6
f 10/21/7 2/137/7 1/18/7
f 32/24/1 11/33/1 15/25/1
f 15/25/1 19/34/1 33/23/1
f 19/34/1 31/138/1 33/23/1
f 36/28/2 34/139/2 22/39/2
f 18/26/2 14/41/2 35/27/2
f 36/28/2 22/39/2 18/26/2
f 39/140/3 19/46/3 38/31/3
f 19/46/3 15/29/3 38/31/3
f 18/30/3 22/141/3 37/142/3
f 22/141/3 40/143/3 37/142/3
f 18/30/3 37/142/3 38/31/3
f 43/32/1 44/50/1 11/33/1
f 45/144/1 31/138/1 19/34/1
f 24/35/1 42/145/1 41/36/1
f 41/36/1 45/144/1 19/34/1
f 46/37/2 47/52/2 25/38/2
f 22/39/2 34/139/2 50/146/2
f 50/146/2 46/37/2 22/39/2
f 48/40/2 35/27/2 14/41/2
f 40/143/4 22/141/4 52/45/4
f 22/141/4 25/43/4 52/45/4
f 25/43/4 55/147/4 56/44/4
f 54/148/4 24/149/4 53/48/4
f 24/149/4 19/46/4 53/48/4
f 19/46/4 39/140/4 51/47/4
f 57/51/1 42/145/1 24/35/1
f 27/49/1 11/33/1 44/50/1
f 57/51/1 24/35/1 27/49/1
f 58/53/2 49/42/2 30/150/2
f 49/42/2 14/41/2 30/150/2
f 30/150/2 25/38/2 58/53/2
f 55/147/5 25/43/5 59/56/5
f 25/43/5 30/54/5 59/56/5
f 27/55/5 24/149/5 60/151/5
f 24/149/5 54/148/5 60/151/5
f 27/55/5 60/151/5 59/56/5
f 18/26/6 15/152/6 62/57/6
f 61/61/6 62/57/6 15/152/6
f 14/60/6 18/26/6 64/153/6
f 18/26/6 63/58/6 64/153/6
f 61/61/6 15/152/6 11/59/6
f 14/60/6 64/153/6 61/61/6
f 27/62/7 30/154/7 66/63/7
f 66/63/7 30/154/7 67/65/7
f 30/154/7 14/60/7 67/65/7
f 11/59/7 27/62/7 68/155/7
f 27/62/7 65/64/7 68/155/7
f 11/59/7 68/155/7 67/65/7
f 32/68/8 33/156/8 16/157/8
f 16/157/8 12/66/8 32/68/8
f 34/71/9 36/158/9 17/159/9
f 17/159/9 21/69/9 34/71/9
f 29/72/10 59/160/10 60/73/10
f 44/77/11 43/161/11 12/162/11
f 12/162/11 28/75/11 44/77/11
f 48/163/8 13/164/8 35/80/8
f 13/164/8 17/78/8 35/80/8
f 60/165/2 54/82/2 28/81/2
f 54/82/2 53/113/2 23/83/2
f 31/86/9 45/133/9 20/166/9
f 20/166/9 16/84/9 31/86/9
f 47/89/19 46/102/19 26/167/19
f 26/167/12 29/87/12 47/89/12
f 55/92/1 59/168/1 29/169/1
f 29/169/1 26/90/1 55/92/1
f 13/93/1 64/170/1 63/94/1
f 29/96/13 28/171/13 65/97/13
f 49/101/11 58/172/11 29/173/11
f 29/173/11 13/99/11 49/101/11
f 21/69/14 26/167/14 46/102/14
f 40/105/1 52/112/1 21/174/1
f 21/174/1 17/103/1 40/105/1
f 39/108/2 38/175/2 16/176/2
f 16/176/2 20/106/2 39/108/2
f 16/109/15 38/177/15 37/110/15
f 26/90/1 21/174/1 52/112/1
f 51/107/2 20/106/2 23/83/2
f 29/114/1 66/178/1 67/115/1
f 28/117/2 12/179/2 68/118/2
f 12/120/16 13/180/16 67/121/16
f 17/123/17 63/181/17 62/124/17
f 12/126/2 16/182/2 62/127/2
f 12/129/18 61/183/18 64/130/18
f 23/132/14 20/166/14 45/133/14
f 42/135/12 57/184/12 28/185/12
f 28/185/12 23/132/12 42/135/12
